<svg xmlns="http://www.w3.org/2000/svg" xmlns:xlink="http://www.w3.org/1999/xlink" width="408.478125pt" height="188.055469pt" viewBox="0 0 408.478125 188.055469"><defs><style>*{stroke-linejoin:round;stroke-linecap:butt}</style></defs><g id="figure_1"><path id="patch_1" d="M0 188.055h408.478V0H0z" style="fill:#fff"/><g id="axes_1"><path id="patch_2" d="M55.345 150.5h139.5V11h-139.5z" style="fill:#fff"/><g id="matplotlib.axis_1"><g id="xtick_1"><path id="line2d_1" d="M55.345 150.5V11" clip-path="url(#pb68f643967)" style="fill:none;stroke:#000;stroke-opacity:.3;stroke-width:.8;stroke-linecap:square"/><g id="line2d_2"><defs><path id="m16ae803e4b" d="M0 0v3.5" style="stroke:#000;stroke-width:.8"/></defs><use xlink:href="#m16ae803e4b" x="55.345313" y="150.499219" style="stroke:#000;stroke-width:.8"/></g><g id="text_1" transform="matrix(.1 0 0 -.1 44.212 165.098)"><defs><path id="DejaVuSans-30" d="M2034 4250q-487 0-733-480-245-479-245-1442 0-959 245-1439 246-480 733-480 491 0 736 480 246 480 246 1439 0 963-246 1442-245 480-736 480zm0 500q785 0 1199-621 414-620 414-1801 0-1178-414-1799Q2819-91 2034-91q-784 0-1198 620-414 621-414 1799 0 1181 414 1801 414 621 1198 621z" transform="scale(.01563)"/><path id="DejaVuSans-2e" d="M684 794h660V0H684v794z" transform="scale(.01563)"/></defs><use xlink:href="#DejaVuSans-30"/><use xlink:href="#DejaVuSans-2e" x="63.623047"/><use xlink:href="#DejaVuSans-30" x="95.410156"/><use xlink:href="#DejaVuSans-30" x="159.033203"/></g></g><g id="xtick_2"><path id="line2d_3" d="M90.22 150.5V11" clip-path="url(#pb68f643967)" style="fill:none;stroke:#000;stroke-opacity:.3;stroke-width:.8;stroke-linecap:square"/><use xlink:href="#m16ae803e4b" id="line2d_4" x="90.220313" y="150.499219" style="stroke:#000;stroke-width:.8"/><g id="text_2" transform="matrix(.1 0 0 -.1 79.088 165.098)"><defs><path id="DejaVuSans-32" d="M1228 531h2203V0H469v531q359 372 979 998 621 627 780 809 303 340 423 576 121 236 121 464 0 372-261 606-261 235-680 235-297 0-627-103-329-103-704-313v638q381 153 712 231 332 78 607 78 725 0 1156-363 431-362 431-968 0-288-108-546-107-257-392-607-78-91-497-524-418-433-1181-1211z" transform="scale(.01563)"/><path id="DejaVuSans-35" d="M691 4666h2478v-532H1269V2991q137 47 274 70 138 23 276 23 781 0 1237-428 457-428 457-1159 0-753-469-1171Q2575-91 1722-91q-294 0-599 50Q819 9 494 109v635q281-153 581-228t634-75q541 0 856 284 316 284 316 772 0 487-316 771-315 285-856 285-253 0-505-56-251-56-513-175v2344z" transform="scale(.01563)"/></defs><use xlink:href="#DejaVuSans-30"/><use xlink:href="#DejaVuSans-2e" x="63.623047"/><use xlink:href="#DejaVuSans-32" x="95.410156"/><use xlink:href="#DejaVuSans-35" x="159.033203"/></g></g><g id="xtick_3"><path id="line2d_5" d="M125.095 150.5V11" clip-path="url(#pb68f643967)" style="fill:none;stroke:#000;stroke-opacity:.3;stroke-width:.8;stroke-linecap:square"/><use xlink:href="#m16ae803e4b" id="line2d_6" x="125.095313" y="150.499219" style="stroke:#000;stroke-width:.8"/><g id="text_3" transform="matrix(.1 0 0 -.1 113.963 165.098)"><use xlink:href="#DejaVuSans-30"/><use xlink:href="#DejaVuSans-2e" x="63.623047"/><use xlink:href="#DejaVuSans-35" x="95.410156"/><use xlink:href="#DejaVuSans-30" x="159.033203"/></g></g><g id="xtick_4"><path id="line2d_7" d="M159.97 150.5V11" clip-path="url(#pb68f643967)" style="fill:none;stroke:#000;stroke-opacity:.3;stroke-width:.8;stroke-linecap:square"/><use xlink:href="#m16ae803e4b" id="line2d_8" x="159.970313" y="150.499219" style="stroke:#000;stroke-width:.8"/><g id="text_4" transform="matrix(.1 0 0 -.1 148.838 165.098)"><defs><path id="DejaVuSans-37" d="M525 4666h3000v-269L1831 0h-659l1594 4134H525v532z" transform="scale(.01563)"/></defs><use xlink:href="#DejaVuSans-30"/><use xlink:href="#DejaVuSans-2e" x="63.623047"/><use xlink:href="#DejaVuSans-37" x="95.410156"/><use xlink:href="#DejaVuSans-35" x="159.033203"/></g></g><g id="xtick_5"><path id="line2d_9" d="M194.845 150.5V11" clip-path="url(#pb68f643967)" style="fill:none;stroke:#000;stroke-opacity:.3;stroke-width:.8;stroke-linecap:square"/><use xlink:href="#m16ae803e4b" id="line2d_10" x="194.845313" y="150.499219" style="stroke:#000;stroke-width:.8"/><g id="text_5" transform="matrix(.1 0 0 -.1 183.713 165.098)"><defs><path id="DejaVuSans-31" d="M794 531h1031v3560L703 3866v575l1116 225h631V531h1031V0H794v531z" transform="scale(.01563)"/></defs><use xlink:href="#DejaVuSans-31"/><use xlink:href="#DejaVuSans-2e" x="63.623047"/><use xlink:href="#DejaVuSans-30" x="95.410156"/><use xlink:href="#DejaVuSans-30" x="159.033203"/></g></g><g id="text_6" transform="matrix(.1 0 0 -.1 112.04 178.776)"><defs><path id="DejaVuSans-43" d="M4122 4306v-665q-319 297-680 443-361 147-767 147-800 0-1225-489t-425-1414q0-922 425-1411t1225-489q406 0 767 147t680 444V359q-331-225-702-338-370-112-782-112-1060 0-1670 648-609 649-609 1771 0 1125 609 1773 610 649 1670 649 418 0 788-111 371-111 696-333z" transform="scale(.01563)"/><path id="DejaVuSans-6f" d="M1959 3097q-462 0-731-361t-269-989q0-628 267-989 268-361 733-361 460 0 728 362 269 363 269 988 0 622-269 986-268 364-728 364zm0 487q750 0 1178-488 429-487 429-1349 0-859-429-1349Q2709-91 1959-91q-753 0-1180 489-426 490-426 1349 0 862 426 1349 427 488 1180 488z" transform="scale(.01563)"/><path id="DejaVuSans-6c" d="M603 4863h575V0H603v4863z" transform="scale(.01563)"/><path id="DejaVuSans-72" d="M2631 2963q-97 56-211 82-114 27-251 27-488 0-749-317t-261-911V0H581v3500h578v-544q182 319 472 473 291 155 707 155 59 0 131-8 72-7 159-23l3-590z" transform="scale(.01563)"/></defs><use xlink:href="#DejaVuSans-43"/><use xlink:href="#DejaVuSans-6f" x="69.824219"/><use xlink:href="#DejaVuSans-6c" x="131.005859"/><use xlink:href="#DejaVuSans-6f" x="158.789062"/><use xlink:href="#DejaVuSans-72" x="219.970703"/></g></g><g id="matplotlib.axis_2"><g id="ytick_1"><path id="line2d_11" d="M55.345 141.2h139.5" clip-path="url(#pb68f643967)" style="fill:none;stroke:#000;stroke-opacity:.3;stroke-width:.8;stroke-linecap:square"/><g id="line2d_12"><defs><path id="m54ab786413" d="M0 0h-3.5" style="stroke:#000;stroke-width:.8"/></defs><use xlink:href="#m54ab786413" x="55.345313" y="141.199219" style="stroke:#000;stroke-width:.8"/></g><g id="text_7" transform="matrix(.1 0 0 -.1 20.878 144.998)"><defs><path id="DejaVuSans-2212" d="M678 2272h4006v-531H678v531z" transform="scale(.01563)"/></defs><use xlink:href="#DejaVuSans-2212"/><use xlink:href="#DejaVuSans-32" x="83.789062"/><use xlink:href="#DejaVuSans-35" x="147.412109"/><use xlink:href="#DejaVuSans-30" x="211.035156"/></g></g><g id="ytick_2"><path id="line2d_13" d="M55.345 117.95h139.5" clip-path="url(#pb68f643967)" style="fill:none;stroke:#000;stroke-opacity:.3;stroke-width:.8;stroke-linecap:square"/><use xlink:href="#m54ab786413" id="line2d_14" x="55.345313" y="117.949219" style="stroke:#000;stroke-width:.8"/><g id="text_8" transform="matrix(.1 0 0 -.1 20.878 121.748)"><use xlink:href="#DejaVuSans-2212"/><use xlink:href="#DejaVuSans-32" x="83.789062"/><use xlink:href="#DejaVuSans-30" x="147.412109"/><use xlink:href="#DejaVuSans-30" x="211.035156"/></g></g><g id="ytick_3"><path id="line2d_15" d="M55.345 94.7h139.5" clip-path="url(#pb68f643967)" style="fill:none;stroke:#000;stroke-opacity:.3;stroke-width:.8;stroke-linecap:square"/><use xlink:href="#m54ab786413" id="line2d_16" x="55.345313" y="94.699219" style="stroke:#000;stroke-width:.8"/><g id="text_9" transform="matrix(.1 0 0 -.1 20.878 98.498)"><use xlink:href="#DejaVuSans-2212"/><use xlink:href="#DejaVuSans-31" x="83.789062"/><use xlink:href="#DejaVuSans-35" x="147.412109"/><use xlink:href="#DejaVuSans-30" x="211.035156"/></g></g><g id="ytick_4"><path id="line2d_17" d="M55.345 71.45h139.5" clip-path="url(#pb68f643967)" style="fill:none;stroke:#000;stroke-opacity:.3;stroke-width:.8;stroke-linecap:square"/><use xlink:href="#m54ab786413" id="line2d_18" x="55.345313" y="71.449219" style="stroke:#000;stroke-width:.8"/><g id="text_10" transform="matrix(.1 0 0 -.1 20.878 75.248)"><use xlink:href="#DejaVuSans-2212"/><use xlink:href="#DejaVuSans-31" x="83.789062"/><use xlink:href="#DejaVuSans-30" x="147.412109"/><use xlink:href="#DejaVuSans-30" x="211.035156"/></g></g><g id="ytick_5"><path id="line2d_19" d="M55.345 48.2h139.5" clip-path="url(#pb68f643967)" style="fill:none;stroke:#000;stroke-opacity:.3;stroke-width:.8;stroke-linecap:square"/><use xlink:href="#m54ab786413" id="line2d_20" x="55.345313" y="48.199219" style="stroke:#000;stroke-width:.8"/><g id="text_11" transform="matrix(.1 0 0 -.1 27.24 51.998)"><use xlink:href="#DejaVuSans-2212"/><use xlink:href="#DejaVuSans-35" x="83.789062"/><use xlink:href="#DejaVuSans-30" x="147.412109"/></g></g><g id="ytick_6"><path id="line2d_21" d="M55.345 24.95h139.5" clip-path="url(#pb68f643967)" style="fill:none;stroke:#000;stroke-opacity:.3;stroke-width:.8;stroke-linecap:square"/><use xlink:href="#m54ab786413" id="line2d_22" x="55.345313" y="24.949219" style="stroke:#000;stroke-width:.8"/><use xlink:href="#DejaVuSans-30" id="text_12" transform="matrix(.1 0 0 -.1 41.983 28.748)"/></g><g id="text_13" transform="matrix(0 -.1 -.1 0 14.798 90.755)"><defs><path id="DejaVuSans-48" d="M628 4666h631V2753h2294v1913h631V0h-631v2222H1259V0H628v4666z" transform="scale(.01563)"/><path id="DejaVuSans-75" d="M544 1381v2119h575V1403q0-497 193-746 194-248 582-248 465 0 735 297 271 297 271 810v1984h575V0h-575v538q-209-319-486-474-276-155-642-155-603 0-916 375-312 375-312 1097zm1447 2203z" transform="scale(.01563)"/><path id="DejaVuSans-65" d="M3597 1894v-281H953q38-594 358-905t892-311q331 0 642 81t618 244V178Q3153 47 2828-22t-659-69q-838 0-1327 487-489 488-489 1320 0 859 464 1363 464 505 1252 505 706 0 1117-455 411-454 411-1235zm-575 169q-6 471-264 752-258 282-683 282-481 0-770-272t-333-766l2050 4z" transform="scale(.01563)"/></defs><use xlink:href="#DejaVuSans-48"/><use xlink:href="#DejaVuSans-75" x="75.195312"/><use xlink:href="#DejaVuSans-65" x="138.574219"/></g></g><path id="line2d_23" d="M55.345 142.488h.547l3.83-9.647 2.735-6.268 2.735-5.666 2.736-5.13 2.735-4.68 3.282-5.134 3.283-4.706 3.83-5.058 3.828-4.678 4.377-4.97 4.376-4.64 4.924-4.89 5.47-5.096 5.471-4.797 6.018-4.985 6.564-5.142 7.112-5.273 7.66-5.385 8.205-5.477 8.753-5.557 9.3-5.624 9.847-5.683 10.394-5.731 10.941-5.775.547-.282h0" clip-path="url(#pb68f643967)" style="fill:none;stroke:#1f77b4;stroke-width:1.5;stroke-linecap:square"/><path id="patch_3" d="M55.345 150.5V11" style="fill:none;stroke:#000;stroke-width:.8;stroke-linejoin:miter;stroke-linecap:square"/><path id="patch_4" d="M194.845 150.5V11" style="fill:none;stroke:#000;stroke-width:.8;stroke-linejoin:miter;stroke-linecap:square"/><path id="patch_5" d="M55.345 150.5h139.5" style="fill:none;stroke:#000;stroke-width:.8;stroke-linejoin:miter;stroke-linecap:square"/><path id="patch_6" d="M55.345 11h139.5" style="fill:none;stroke:#000;stroke-width:.8;stroke-linejoin:miter;stroke-linecap:square"/></g><g id="axes_2"><path id="patch_7" d="M250.645 150.5h139.5V11h-139.5z" style="fill:#fff"/><g id="matplotlib.axis_3"><g id="xtick_6"><path id="line2d_24" d="M250.645 150.5V11" clip-path="url(#p4967b2e29c)" style="fill:none;stroke:#000;stroke-opacity:.3;stroke-width:.8;stroke-linecap:square"/><use xlink:href="#m16ae803e4b" id="line2d_25" x="250.645313" y="150.499219" style="stroke:#000;stroke-width:.8"/><g id="text_14" transform="matrix(.1 0 0 -.1 239.512 165.098)"><use xlink:href="#DejaVuSans-30"/><use xlink:href="#DejaVuSans-2e" x="63.623047"/><use xlink:href="#DejaVuSans-30" x="95.410156"/><use xlink:href="#DejaVuSans-30" x="159.033203"/></g></g><g id="xtick_7"><path id="line2d_26" d="M285.52 150.5V11" clip-path="url(#p4967b2e29c)" style="fill:none;stroke:#000;stroke-opacity:.3;stroke-width:.8;stroke-linecap:square"/><use xlink:href="#m16ae803e4b" id="line2d_27" x="285.520313" y="150.499219" style="stroke:#000;stroke-width:.8"/><g id="text_15" transform="matrix(.1 0 0 -.1 274.387 165.098)"><use xlink:href="#DejaVuSans-30"/><use xlink:href="#DejaVuSans-2e" x="63.623047"/><use xlink:href="#DejaVuSans-32" x="95.410156"/><use xlink:href="#DejaVuSans-35" x="159.033203"/></g></g><g id="xtick_8"><path id="line2d_28" d="M320.395 150.5V11" clip-path="url(#p4967b2e29c)" style="fill:none;stroke:#000;stroke-opacity:.3;stroke-width:.8;stroke-linecap:square"/><use xlink:href="#m16ae803e4b" id="line2d_29" x="320.395313" y="150.499219" style="stroke:#000;stroke-width:.8"/><g id="text_16" transform="matrix(.1 0 0 -.1 309.262 165.098)"><use xlink:href="#DejaVuSans-30"/><use xlink:href="#DejaVuSans-2e" x="63.623047"/><use xlink:href="#DejaVuSans-35" x="95.410156"/><use xlink:href="#DejaVuSans-30" x="159.033203"/></g></g><g id="xtick_9"><path id="line2d_30" d="M355.27 150.5V11" clip-path="url(#p4967b2e29c)" style="fill:none;stroke:#000;stroke-opacity:.3;stroke-width:.8;stroke-linecap:square"/><use xlink:href="#m16ae803e4b" id="line2d_31" x="355.270313" y="150.499219" style="stroke:#000;stroke-width:.8"/><g id="text_17" transform="matrix(.1 0 0 -.1 344.137 165.098)"><use xlink:href="#DejaVuSans-30"/><use xlink:href="#DejaVuSans-2e" x="63.623047"/><use xlink:href="#DejaVuSans-37" x="95.410156"/><use xlink:href="#DejaVuSans-35" x="159.033203"/></g></g><g id="xtick_10"><path id="line2d_32" d="M390.145 150.5V11" clip-path="url(#p4967b2e29c)" style="fill:none;stroke:#000;stroke-opacity:.3;stroke-width:.8;stroke-linecap:square"/><use xlink:href="#m16ae803e4b" id="line2d_33" x="390.145313" y="150.499219" style="stroke:#000;stroke-width:.8"/><g id="text_18" transform="matrix(.1 0 0 -.1 379.012 165.098)"><use xlink:href="#DejaVuSans-31"/><use xlink:href="#DejaVuSans-2e" x="63.623047"/><use xlink:href="#DejaVuSans-30" x="95.410156"/><use xlink:href="#DejaVuSans-30" x="159.033203"/></g></g><g id="text_19" transform="matrix(.1 0 0 -.1 307.34 178.776)"><use xlink:href="#DejaVuSans-43"/><use xlink:href="#DejaVuSans-6f" x="69.824219"/><use xlink:href="#DejaVuSans-6c" x="131.005859"/><use xlink:href="#DejaVuSans-6f" x="158.789062"/><use xlink:href="#DejaVuSans-72" x="219.970703"/></g></g><g id="matplotlib.axis_4"><g id="ytick_7"><path id="line2d_34" d="M250.645 150.5h139.5" clip-path="url(#p4967b2e29c)" style="fill:none;stroke:#000;stroke-opacity:.3;stroke-width:.8;stroke-linecap:square"/><use xlink:href="#m54ab786413" id="line2d_35" x="250.645313" y="150.499219" style="stroke:#000;stroke-width:.8"/><use xlink:href="#DejaVuSans-30" id="text_20" transform="matrix(.1 0 0 -.1 237.283 154.298)"/></g><g id="ytick_8"><path id="line2d_36" d="M250.645 122.6h139.5" clip-path="url(#p4967b2e29c)" style="fill:none;stroke:#000;stroke-opacity:.3;stroke-width:.8;stroke-linecap:square"/><use xlink:href="#m54ab786413" id="line2d_37" x="250.645313" y="122.599219" style="stroke:#000;stroke-width:.8"/><g id="text_21" transform="matrix(.1 0 0 -.1 230.92 126.398)"><use xlink:href="#DejaVuSans-31"/><use xlink:href="#DejaVuSans-30" x="63.623047"/></g></g><g id="ytick_9"><path id="line2d_38" d="M250.645 94.7h139.5" clip-path="url(#p4967b2e29c)" style="fill:none;stroke:#000;stroke-opacity:.3;stroke-width:.8;stroke-linecap:square"/><use xlink:href="#m54ab786413" id="line2d_39" x="250.645313" y="94.699219" style="stroke:#000;stroke-width:.8"/><g id="text_22" transform="matrix(.1 0 0 -.1 230.92 98.498)"><use xlink:href="#DejaVuSans-32"/><use xlink:href="#DejaVuSans-30" x="63.623047"/></g></g><g id="ytick_10"><path id="line2d_40" d="M250.645 66.8h139.5" clip-path="url(#p4967b2e29c)" style="fill:none;stroke:#000;stroke-opacity:.3;stroke-width:.8;stroke-linecap:square"/><use xlink:href="#m54ab786413" id="line2d_41" x="250.645313" y="66.799219" style="stroke:#000;stroke-width:.8"/><g id="text_23" transform="matrix(.1 0 0 -.1 230.92 70.598)"><defs><path id="DejaVuSans-33" d="M2597 2516q453-97 707-404 255-306 255-756 0-690-475-1069Q2609-91 1734-91q-293 0-604 58T488 141v609q262-153 574-231 313-78 654-78 593 0 904 234t311 681q0 413-289 645-289 233-804 233h-544v519h569q465 0 712 186t247 536q0 359-255 551-254 193-729 193-260 0-557-57-297-56-653-174v562q360 100 674 150t592 50q719 0 1137-327 419-326 419-882 0-388-222-655t-631-370z" transform="scale(.01563)"/></defs><use xlink:href="#DejaVuSans-33"/><use xlink:href="#DejaVuSans-30" x="63.623047"/></g></g><g id="ytick_11"><path id="line2d_42" d="M250.645 38.9h139.5" clip-path="url(#p4967b2e29c)" style="fill:none;stroke:#000;stroke-opacity:.3;stroke-width:.8;stroke-linecap:square"/><use xlink:href="#m54ab786413" id="line2d_43" x="250.645313" y="38.899219" style="stroke:#000;stroke-width:.8"/><g id="text_24" transform="matrix(.1 0 0 -.1 230.92 42.698)"><defs><path id="DejaVuSans-34" d="M2419 4116 825 1625h1594v2491zm-166 550h794V1625h666v-525h-666V0h-628v1100H313v609l1940 2957z" transform="scale(.01563)"/></defs><use xlink:href="#DejaVuSans-34"/><use xlink:href="#DejaVuSans-30" x="63.623047"/></g></g><g id="ytick_12"><path id="line2d_44" d="M250.645 11h139.5" clip-path="url(#p4967b2e29c)" style="fill:none;stroke:#000;stroke-opacity:.3;stroke-width:.8;stroke-linecap:square"/><use xlink:href="#m54ab786413" id="line2d_45" x="250.645313" y="10.999219" style="stroke:#000;stroke-width:.8"/><g id="text_25" transform="matrix(.1 0 0 -.1 230.92 14.798)"><use xlink:href="#DejaVuSans-35"/><use xlink:href="#DejaVuSans-30" x="63.623047"/></g></g><g id="text_26" transform="matrix(0 -.1 -.1 0 224.84 100.346)"><defs><path id="DejaVuSans-68" d="M3513 2113V0h-575v2094q0 497-194 743-194 247-581 247-466 0-735-297-269-296-269-809V0H581v4863h578V2956q207 316 486 472 280 156 646 156 603 0 912-373 310-373 310-1098z" transform="scale(.01563)"/><path id="DejaVuSans-6d" d="M3328 2828q216 388 516 572t706 184q547 0 844-383 297-382 297-1088V0h-578v2094q0 503-179 746-178 244-543 244-447 0-707-297-259-296-259-809V0h-578v2094q0 506-178 748t-550 242q-441 0-701-298-259-298-259-808V0H581v3500h578v-544q197 322 472 475t653 153q382 0 649-194 267-193 395-562z" transform="scale(.01563)"/><path id="DejaVuSans-61" d="M2194 1759q-697 0-966-159t-269-544q0-306 202-486 202-179 548-179 479 0 768 339t289 901v128h-572zm1147 238V0h-575v531q-197-318-491-470T1556-91q-537 0-855 302-317 302-317 808 0 590 395 890 396 300 1180 300h807v57q0 397-261 614t-733 217q-300 0-585-72-284-72-546-216v532q315 122 612 182 297 61 578 61 760 0 1135-394 375-393 375-1193z" transform="scale(.01563)"/></defs><use xlink:href="#DejaVuSans-43"/><use xlink:href="#DejaVuSans-68" x="69.824219"/><use xlink:href="#DejaVuSans-72" x="133.203125"/><use xlink:href="#DejaVuSans-6f" x="172.066406"/><use xlink:href="#DejaVuSans-6d" x="233.248047"/><use xlink:href="#DejaVuSans-61" x="330.660156"/></g></g><path id="line2d_46" d="m250.645 150.5 4.377-10.785 2.735-6.106 2.735-5.52 2.736-4.998 2.735-4.56 3.282-5.001 3.283-4.585 3.83-4.928 3.828-4.558 4.377-4.842 4.376-4.52 4.924-4.765 5.47-4.964 5.471-4.673 6.018-4.857 6.564-5.01 7.112-5.137 7.66-5.245 8.205-5.337 8.753-5.414 9.3-5.48 9.847-5.535 10.394-5.584 10.941-5.626.547-.275h0" clip-path="url(#p4967b2e29c)" style="fill:none;stroke:#1f77b4;stroke-width:1.5;stroke-linecap:square"/><path id="patch_8" d="M250.645 150.5V11" style="fill:none;stroke:#000;stroke-width:.8;stroke-linejoin:miter;stroke-linecap:square"/><path id="patch_9" d="M390.145 150.5V11" style="fill:none;stroke:#000;stroke-width:.8;stroke-linejoin:miter;stroke-linecap:square"/><path id="patch_10" d="M250.645 150.5h139.5" style="fill:none;stroke:#000;stroke-width:.8;stroke-linejoin:miter;stroke-linecap:square"/><path id="patch_11" d="M250.645 11h139.5" style="fill:none;stroke:#000;stroke-width:.8;stroke-linejoin:miter;stroke-linecap:square"/></g></g><defs><clipPath id="pb68f643967"><path d="M55.345 10.999h139.5v139.5h-139.5z"/></clipPath><clipPath id="p4967b2e29c"><path d="M250.645 10.999h139.5v139.5h-139.5z"/></clipPath></defs></svg>