<svg xmlns="http://www.w3.org/2000/svg" xmlns:xlink="http://www.w3.org/1999/xlink" width="332.9995pt" height="314.667469pt" viewBox="0 0 332.9995 314.667469"><defs><style>*{stroke-linejoin:round;stroke-linecap:butt}</style></defs><g id="figure_1"><path id="patch_1" d="M0 314.667h333V0H0z" style="fill:#fff"/><g id="axes_1"><path id="patch_2" d="M50.144 277.111h266.112V11H50.144z" style="fill:#fff"/><g id="matplotlib.axis_1"><g id="xtick_1"><path id="line2d_1" d="M50.144 277.111V11" clip-path="url(#pc35c88c2ed)" style="fill:none;stroke:#000;stroke-opacity:.3;stroke-width:.8;stroke-linecap:square"/><g id="line2d_2"><defs><path id="m78b4b832a6" d="M0 0v3.5" style="stroke:#000;stroke-width:.8"/></defs><use xlink:href="#m78b4b832a6" x="50.14375" y="277.111219" style="stroke:#000;stroke-width:.8"/></g><g id="text_1" transform="matrix(.1 0 0 -.1 46.962 291.71)"><defs><path id="DejaVuSans-30" d="M2034 4250q-487 0-733-480-245-479-245-1442 0-959 245-1439 246-480 733-480 491 0 736 480 246 480 246 1439 0 963-246 1442-245 480-736 480zm0 500q785 0 1199-621 414-620 414-1801 0-1178-414-1799Q2819-91 2034-91q-784 0-1198 620-414 621-414 1799 0 1181 414 1801 414 621 1198 621z" transform="scale(.01563)"/></defs><use xlink:href="#DejaVuSans-30"/></g></g><g id="xtick_2"><path id="line2d_3" d="M115.89 277.111V11" clip-path="url(#pc35c88c2ed)" style="fill:none;stroke:#000;stroke-opacity:.3;stroke-width:.8;stroke-linecap:square"/><use xlink:href="#m78b4b832a6" id="line2d_4" x="115.889068" y="277.111219" style="stroke:#000;stroke-width:.8"/><g id="text_2" transform="matrix(.1 0 0 -.1 109.527 291.71)"><defs><path id="DejaVuSans-36" d="M2113 2584q-425 0-674-291-248-290-248-796 0-503 248-796 249-292 674-292t673 292q248 293 248 796 0 506-248 796-248 291-673 291zm1253 1979v-575q-238 112-480 171-242 60-480 60-625 0-955-422-329-422-376-1275 184 272 462 417 279 145 613 145 703 0 1111-427 408-426 408-1160 0-719-425-1154Q2819-91 2113-91q-810 0-1238 620-428 621-428 1799 0 1106 525 1764t1409 658q238 0 480-47t505-140z" transform="scale(.01563)"/><path id="DejaVuSans-33" d="M2597 2516q453-97 707-404 255-306 255-756 0-690-475-1069Q2609-91 1734-91q-293 0-604 58T488 141v609q262-153 574-231 313-78 654-78 593 0 904 234t311 681q0 413-289 645-289 233-804 233h-544v519h569q465 0 712 186t247 536q0 359-255 551-254 193-729 193-260 0-557-57-297-56-653-174v562q360 100 674 150t592 50q719 0 1137-327 419-326 419-882 0-388-222-655t-631-370z" transform="scale(.01563)"/></defs><use xlink:href="#DejaVuSans-36"/><use xlink:href="#DejaVuSans-33" x="63.623047"/></g></g><g id="xtick_3"><path id="line2d_5" d="M182.678 277.111V11" clip-path="url(#pc35c88c2ed)" style="fill:none;stroke:#000;stroke-opacity:.3;stroke-width:.8;stroke-linecap:square"/><use xlink:href="#m78b4b832a6" id="line2d_6" x="182.677962" y="277.111219" style="stroke:#000;stroke-width:.8"/><g id="text_3" transform="matrix(.1 0 0 -.1 173.134 291.71)"><defs><path id="DejaVuSans-31" d="M794 531h1031v3560L703 3866v575l1116 225h631V531h1031V0H794v531z" transform="scale(.01563)"/><path id="DejaVuSans-32" d="M1228 531h2203V0H469v531q359 372 979 998 621 627 780 809 303 340 423 576 121 236 121 464 0 372-261 606-261 235-680 235-297 0-627-103-329-103-704-313v638q381 153 712 231 332 78 607 78 725 0 1156-363 431-362 431-968 0-288-108-546-107-257-392-607-78-91-497-524-418-433-1181-1211z" transform="scale(.01563)"/><path id="DejaVuSans-37" d="M525 4666h3000v-269L1831 0h-659l1594 4134H525v532z" transform="scale(.01563)"/></defs><use xlink:href="#DejaVuSans-31"/><use xlink:href="#DejaVuSans-32" x="63.623047"/><use xlink:href="#DejaVuSans-37" x="127.246094"/></g></g><g id="xtick_4"><path id="line2d_7" d="M249.467 277.111V11" clip-path="url(#pc35c88c2ed)" style="fill:none;stroke:#000;stroke-opacity:.3;stroke-width:.8;stroke-linecap:square"/><use xlink:href="#m78b4b832a6" id="line2d_8" x="249.466856" y="277.111219" style="stroke:#000;stroke-width:.8"/><g id="text_4" transform="matrix(.1 0 0 -.1 239.923 291.71)"><defs><path id="DejaVuSans-39" d="M703 97v575q238-113 481-172 244-59 479-59 625 0 954 420 330 420 377 1277-181-269-460-413-278-144-615-144-700 0-1108 423-408 424-408 1159 0 718 425 1152 425 435 1131 435 810 0 1236-621 427-620 427-1801 0-1103-524-1761Q2575-91 1691-91q-238 0-482 47Q966 3 703 97zm1256 1978q425 0 673 290 249 291 249 798 0 503-249 795-248 292-673 292t-673-292q-248-292-248-795 0-507 248-798 248-290 673-290z" transform="scale(.01563)"/></defs><use xlink:href="#DejaVuSans-31"/><use xlink:href="#DejaVuSans-39" x="63.623047"/><use xlink:href="#DejaVuSans-31" x="127.246094"/></g></g><g id="xtick_5"><path id="line2d_9" d="M316.256 277.111V11" clip-path="url(#pc35c88c2ed)" style="fill:none;stroke:#000;stroke-opacity:.3;stroke-width:.8;stroke-linecap:square"/><use xlink:href="#m78b4b832a6" id="line2d_10" x="316.25575" y="277.111219" style="stroke:#000;stroke-width:.8"/><g id="text_5" transform="matrix(.1 0 0 -.1 306.712 291.71)"><defs><path id="DejaVuSans-35" d="M691 4666h2478v-532H1269V2991q137 47 274 70 138 23 276 23 781 0 1237-428 457-428 457-1159 0-753-469-1171Q2575-91 1722-91q-294 0-599 50Q819 9 494 109v635q281-153 581-228t634-75q541 0 856 284 316 284 316 772 0 487-316 771-315 285-856 285-253 0-505-56-251-56-513-175v2344z" transform="scale(.01563)"/></defs><use xlink:href="#DejaVuSans-32"/><use xlink:href="#DejaVuSans-35" x="63.623047"/><use xlink:href="#DejaVuSans-35" x="127.246094"/></g></g><g id="text_6" transform="matrix(.1 0 0 -.1 170.145 305.388)"><defs><path id="DejaVuSans-43" d="M4122 4306v-665q-319 297-680 443-361 147-767 147-800 0-1225-489t-425-1414q0-922 425-1411t1225-489q406 0 767 147t680 444V359q-331-225-702-338-370-112-782-112-1060 0-1670 648-609 649-609 1771 0 1125 609 1773 610 649 1670 649 418 0 788-111 371-111 696-333z" transform="scale(.01563)"/><path id="DejaVuSans-6f" d="M1959 3097q-462 0-731-361t-269-989q0-628 267-989 268-361 733-361 460 0 728 362 269 363 269 988 0 622-269 986-268 364-728 364zm0 487q750 0 1178-488 429-487 429-1349 0-859-429-1349Q2709-91 1959-91q-753 0-1180 489-426 490-426 1349 0 862 426 1349 427 488 1180 488z" transform="scale(.01563)"/><path id="DejaVuSans-6c" d="M603 4863h575V0H603v4863z" transform="scale(.01563)"/><path id="DejaVuSans-72" d="M2631 2963q-97 56-211 82-114 27-251 27-488 0-749-317t-261-911V0H581v3500h578v-544q182 319 472 473 291 155 707 155 59 0 131-8 72-7 159-23l3-590z" transform="scale(.01563)"/></defs><use xlink:href="#DejaVuSans-43"/><use xlink:href="#DejaVuSans-6f" x="69.824219"/><use xlink:href="#DejaVuSans-6c" x="131.005859"/><use xlink:href="#DejaVuSans-6f" x="158.789062"/><use xlink:href="#DejaVuSans-72" x="219.970703"/></g></g><g id="matplotlib.axis_2"><g id="ytick_1"><path id="line2d_11" d="M50.144 277.111h266.112" clip-path="url(#pc35c88c2ed)" style="fill:none;stroke:#000;stroke-opacity:.3;stroke-width:.8;stroke-linecap:square"/><g id="line2d_12"><defs><path id="m199e0c5e6e" d="M0 0h-3.5" style="stroke:#000;stroke-width:.8"/></defs><use xlink:href="#m199e0c5e6e" x="50.14375" y="277.111219" style="stroke:#000;stroke-width:.8"/></g><g id="text_7" transform="matrix(.1 0 0 -.1 20.878 280.91)"><defs><path id="DejaVuSans-2e" d="M684 794h660V0H684v794z" transform="scale(.01563)"/></defs><use xlink:href="#DejaVuSans-30"/><use xlink:href="#DejaVuSans-2e" x="63.623047"/><use xlink:href="#DejaVuSans-30" x="95.410156"/><use xlink:href="#DejaVuSans-30" x="159.033203"/></g></g><g id="ytick_2"><path id="line2d_13" d="M50.144 210.583h266.112" clip-path="url(#pc35c88c2ed)" style="fill:none;stroke:#000;stroke-opacity:.3;stroke-width:.8;stroke-linecap:square"/><use xlink:href="#m199e0c5e6e" id="line2d_14" x="50.14375" y="210.583219" style="stroke:#000;stroke-width:.8"/><g id="text_8" transform="matrix(.1 0 0 -.1 20.878 214.382)"><use xlink:href="#DejaVuSans-30"/><use xlink:href="#DejaVuSans-2e" x="63.623047"/><use xlink:href="#DejaVuSans-32" x="95.410156"/><use xlink:href="#DejaVuSans-35" x="159.033203"/></g></g><g id="ytick_3"><path id="line2d_15" d="M50.144 144.055h266.112" clip-path="url(#pc35c88c2ed)" style="fill:none;stroke:#000;stroke-opacity:.3;stroke-width:.8;stroke-linecap:square"/><use xlink:href="#m199e0c5e6e" id="line2d_16" x="50.14375" y="144.055219" style="stroke:#000;stroke-width:.8"/><g id="text_9" transform="matrix(.1 0 0 -.1 20.878 147.854)"><use xlink:href="#DejaVuSans-30"/><use xlink:href="#DejaVuSans-2e" x="63.623047"/><use xlink:href="#DejaVuSans-35" x="95.410156"/><use xlink:href="#DejaVuSans-30" x="159.033203"/></g></g><g id="ytick_4"><path id="line2d_17" d="M50.144 77.527h266.112" clip-path="url(#pc35c88c2ed)" style="fill:none;stroke:#000;stroke-opacity:.3;stroke-width:.8;stroke-linecap:square"/><use xlink:href="#m199e0c5e6e" id="line2d_18" x="50.14375" y="77.527219" style="stroke:#000;stroke-width:.8"/><g id="text_10" transform="matrix(.1 0 0 -.1 20.878 81.326)"><use xlink:href="#DejaVuSans-30"/><use xlink:href="#DejaVuSans-2e" x="63.623047"/><use xlink:href="#DejaVuSans-37" x="95.410156"/><use xlink:href="#DejaVuSans-35" x="159.033203"/></g></g><g id="ytick_5"><path id="line2d_19" d="M50.144 11h266.112" clip-path="url(#pc35c88c2ed)" style="fill:none;stroke:#000;stroke-opacity:.3;stroke-width:.8;stroke-linecap:square"/><use xlink:href="#m199e0c5e6e" id="line2d_20" x="50.14375" y="10.999219" style="stroke:#000;stroke-width:.8"/><g id="text_11" transform="matrix(.1 0 0 -.1 20.878 14.798)"><use xlink:href="#DejaVuSans-31"/><use xlink:href="#DejaVuSans-2e" x="63.623047"/><use xlink:href="#DejaVuSans-30" x="95.410156"/><use xlink:href="#DejaVuSans-30" x="159.033203"/></g></g><g id="text_12" transform="matrix(0 -.1 -.1 0 14.798 202.758)"><defs><path id="DejaVuSans-55" d="M556 4666h635V1831q0-750 271-1080 272-329 882-329 606 0 878 329 272 330 272 1080v2835h634V1753q0-912-452-1378Q3225-91 2344-91q-885 0-1337 466-451 466-451 1378v2913z" transform="scale(.01563)"/><path id="DejaVuSans-6e" d="M3513 2113V0h-575v2094q0 497-194 743-194 247-581 247-466 0-735-297-269-296-269-809V0H581v3500h578v-544q207 316 486 472 280 156 646 156 603 0 912-373 310-373 310-1098z" transform="scale(.01563)"/><path id="DejaVuSans-69" d="M603 3500h575V0H603v3500zm0 1363h575v-729H603v729z" transform="scale(.01563)"/><path id="DejaVuSans-66" d="M2375 4863v-479h-550q-309 0-430-125-120-125-120-450v-309h947v-447h-947V0H697v3053H147v447h550v244q0 584 272 851 272 268 862 268h544z" transform="scale(.01563)"/><path id="DejaVuSans-6d" d="M3328 2828q216 388 516 572t706 184q547 0 844-383 297-382 297-1088V0h-578v2094q0 503-179 746-178 244-543 244-447 0-707-297-259-296-259-809V0h-578v2094q0 506-178 748t-550 242q-441 0-701-298-259-298-259-808V0H581v3500h578v-544q197 322 472 475t653 153q382 0 649-194 267-193 395-562z" transform="scale(.01563)"/><path id="DejaVuSans-7a" d="M353 3500h2731v-525L922 459h2162V0H275v525l2163 2516H353v459z" transform="scale(.01563)"/><path id="DejaVuSans-65" d="M3597 1894v-281H953q38-594 358-905t892-311q331 0 642 81t618 244V178Q3153 47 2828-22t-659-69q-838 0-1327 487-489 488-489 1320 0 859 464 1363 464 505 1252 505 706 0 1117-455 411-454 411-1235zm-575 169q-6 471-264 752-258 282-683 282-481 0-770-272t-333-766l2050 4z" transform="scale(.01563)"/><path id="DejaVuSans-64" d="M2906 2969v1894h575V0h-575v525q-181-312-458-464-276-152-664-152-634 0-1033 506-398 507-398 1332t398 1331q399 506 1033 506 388 0 664-152 277-151 458-463zM947 1747q0-634 261-995t717-361q456 0 718 361 263 361 263 995t-263 995q-262 361-718 361t-717-361q-261-361-261-995z" transform="scale(.01563)"/><path id="DejaVuSans-67" d="M2906 1791q0 625-258 968-257 344-723 344-462 0-720-344-258-343-258-968 0-622 258-966t720-344q466 0 723 344 258 344 258 966zm575-1357q0-893-397-1329-396-436-1215-436-303 0-572 45t-522 139v559q253-137 500-202 247-66 503-66 566 0 847 295t281 892v285q-178-310-456-463T1784 0Q1141 0 747 490 353 981 353 1791q0 812 394 1302 394 491 1037 491 388 0 666-153t456-462v531h575V434z" transform="scale(.01563)"/><path id="DejaVuSans-68" d="M3513 2113V0h-575v2094q0 497-194 743-194 247-581 247-466 0-735-297-269-296-269-809V0H581v4863h578V2956q207 316 486 472 280 156 646 156 603 0 912-373 310-373 310-1098z" transform="scale(.01563)"/><path id="DejaVuSans-74" d="M1172 4494v-994h1184v-447H1172V1153q0-428 117-550t477-122h590V0h-590q-666 0-919 248-253 249-253 905v1900H172v447h422v994h578z" transform="scale(.01563)"/><path id="DejaVuSans-73" d="M2834 3397v-544q-243 125-506 187-262 63-544 63-428 0-642-131t-214-394q0-200 153-314t616-217l197-44q612-131 870-370t258-667q0-488-386-773Q2250-91 1575-91q-281 0-586 55T347 128v594q319-166 628-249 309-82 613-82 406 0 624 139 219 139 219 392 0 234-158 359-157 125-692 241l-200 47q-534 112-772 345-237 233-237 639 0 494 350 762 350 269 994 269 318 0 599-47 282-46 519-140z" transform="scale(.01563)"/><path id="DejaVuSans-4a" d="M628 4666h631V325q0-844-320-1225T-91-1281h-240v531h197q418 0 590 235 172 234 172 840v4341z" transform="scale(.01563)"/><path id="DejaVuSans-27" d="M1147 4666V2931H616v1735h531z" transform="scale(.01563)"/></defs><use xlink:href="#DejaVuSans-55"/><use xlink:href="#DejaVuSans-6e" x="73.193359"/><use xlink:href="#DejaVuSans-69" x="136.572266"/><use xlink:href="#DejaVuSans-66" x="164.355469"/><use xlink:href="#DejaVuSans-6f" x="199.560547"/><use xlink:href="#DejaVuSans-72" x="260.742188"/><use xlink:href="#DejaVuSans-6d" x="300.105469"/><use xlink:href="#DejaVuSans-69" x="397.517578"/><use xlink:href="#DejaVuSans-7a" x="425.300781"/><use xlink:href="#DejaVuSans-65" x="477.791016"/><use xlink:href="#DejaVuSans-64" x="539.314453"/><use xlink:href="#DejaVuSans-20" x="602.791016"/><use xlink:href="#DejaVuSans-6c" x="634.578125"/><use xlink:href="#DejaVuSans-69" x="662.361328"/><use xlink:href="#DejaVuSans-67" x="690.144531"/><use xlink:href="#DejaVuSans-68" x="753.621094"/><use xlink:href="#DejaVuSans-74" x="817"/><use xlink:href="#DejaVuSans-6e" x="856.208984"/><use xlink:href="#DejaVuSans-65" x="919.587891"/><use xlink:href="#DejaVuSans-73" x="981.111328"/><use xlink:href="#DejaVuSans-73" x="1033.210938"/><use xlink:href="#DejaVuSans-20" x="1085.310547"/><use xlink:href="#DejaVuSans-4a" x="1117.097656"/><use xlink:href="#DejaVuSans-27" x="1146.589844"/></g></g><path id="line2d_21" d="m50.144 277.111 1.043-5.003 1.044-2.336 1.043-1.836 2.088-2.968 2.087-2.45 2.087-2.138 10.436-9.99 7.305-7.414 8.348-8.783 11.48-12.437 16.697-18.48 31.307-34.697 15.654-16.973 13.566-14.38 12.523-12.959 12.523-12.627 11.48-11.27 11.479-10.97 11.48-10.663 11.479-10.356 11.479-10.05 11.48-9.746 11.479-9.448 11.479-9.154 11.48-8.867 11.479-8.587 2.087-1.532h0" clip-path="url(#pc35c88c2ed)" style="fill:none;stroke:#1f77b4;stroke-width:1.5;stroke-linecap:square"/><path id="line2d_22" d="M50.144 277.111 317.299 11" clip-path="url(#pc35c88c2ed)" style="fill:none;stroke-dasharray:1.5,2.475;stroke-dashoffset:0;stroke:#000;stroke-opacity:.5;stroke-width:1.5"/><path id="patch_3" d="M50.144 277.111V11" style="fill:none;stroke:#000;stroke-width:.8;stroke-linejoin:miter;stroke-linecap:square"/><path id="patch_4" d="M316.256 277.111V11" style="fill:none;stroke:#000;stroke-width:.8;stroke-linejoin:miter;stroke-linecap:square"/><path id="patch_5" d="M50.144 277.111h266.112" style="fill:none;stroke:#000;stroke-width:.8;stroke-linejoin:miter;stroke-linecap:square"/><path id="patch_6" d="M50.144 11h266.112" style="fill:none;stroke:#000;stroke-width:.8;stroke-linejoin:miter;stroke-linecap:square"/></g></g><defs><clipPath id="pc35c88c2ed"><path d="M50.144 10.999h266.112v266.112H50.144z"/></clipPath></defs></svg>